# xmcd
#
# Track frame offsets:
#	150
#	13247
#	26496
#	39648
#	50175
#	63172
#	72709
#	88583
#	98463
#	114258
#	127681
#	142137
#	154867
#	166769
#	184212
#	198288
#	216663
#	228428
#
# Disc length: 3255 seconds
#
# Revision: 0
# Processed by: cddbd v1.5.2PL0 Copyright (c) Steve Scherf et al.
# Submitted via: SynApp - FreeCDDB Version: 2.5
#
DISCID=fe0cb512
DTITLE=Lynn Anderson - Country Store Collection 1971-1980
DYEAR=1981
DGENRE=Country
TTITLE0=Rose garden
TTITLE1=Top of the world
TTITLE2=Sweet talking man
TTITLE3=Its only make believe
TTITLE4=Honey come back
TTITLE5=Stay there
TTITLE6=For the good times
TTITLE7=Snowbird
TTITLE8=Sea of the heartbreak
TTITLE9=Even cowgirls get the blues
TTITLE10=I love how you love me
TTITLE11=Love me tonight
TTITLE12=You are my man
TTITLE13=Sunday morning
TTITLE14=Cry
TTITLE15=Bedtime story
TTITLE16=You are my man 2
TTITLE17=Killing me softly
EXTD=
EXTT0=
EXTT1=
EXTT2=
EXTT3=
EXTT4=
EXTT5=
EXTT6=
EXTT7=
EXTT8=
EXTT9=
EXTT10=
EXTT11=
EXTT12=
EXTT13=
EXTT14=
EXTT15=
EXTT16=
EXTT17=
PLAYORDER=
